<?xml version="1.0" encoding="UTF-8"?>
<svg id="Calque_2" data-name="Calque 2" xmlns="http://www.w3.org/2000/svg" viewBox="0 0 1418.08 1205.47">
  <defs>
    <style>
      .cls-1 {
        fill: #110505;
        fill-rule: evenodd;
        stroke-width: 0px;
      }
    </style>
  </defs>
  <g id="Calque_1-2" data-name="Calque 1">
    <path class="cls-1" d="m1415.6,7.47c-20.46-35.66-253.5,67.69-306,72,12.53,4.45-43.83,14.95-46,16-14.08,9.88-44.04,17.9-54,23.99-39.89,20.46-80.48,27.47-124,42.01-26.52,18.91-66.37,19.68-98,30-87.94,30.11-186.55,58.29-281,83.01-24.26-16.85-61.87-45.69-92-60.01-39.18-14.58-85.91-41.37-128-54-21.82-2.14-82.47-28.73-108-23,0-1.33,0-2.67,0-4-10.29,5.78-31.99-5.01-41-4-25.85,2.12-66.27-11.41-100-2-4.06-1.24-2.08.43-3-3-66.77,3.4-21.52,18.6,8,43,80.43,86.49,115.75,187.97,146,295-42.45,23.62-83.5,51.55-124.99,78.01,17.91,163.65-35.61,415.36,19.95,534,148.41-22.6,282.14-45.27,426.04-88.01,62.65,64.73,44.63,139.76,35.99,219,124.22-52.83,197.5-153.53,243.01-267,69.91-20.69,138.95-45.08,207.99-64.01-.66-10.76,29.8-9.1,39-14,20.84-11.52,39.31-17.64,65-25,81.13-37.03,182.06-74.18,208.99-175.01-6.69-25.09-34.27,9.52-46.99,13.01-46.84-109.88-23.89-7.79-64,25-35.9-67.11-45.69-99.98-67.01-1-5.01-6.51.06,17.15-13,15-7.77-20.05-34.32-42.18-39-63-13.22,4.25-35.45,58.26-46,71-7.48-7.46-27.5-51.85-28-59-38.93,37.81-42.68,110.68-76,6-12.71,6.49-30.18,28.96-39,47-45.51,4.95-31.27-78.92-32.99-109.99,17.91-45.37-4.71-38.94,52-24.99,13.54-22.81-1.75-54.4,5-75,14.76,10.93,33.86,15.77,48,32,13.66-13.35,24.8-70.19,30-86,78.14,79.71,39.79,53.9,81-28,4.89,12.2,40.97,61.17,53.99,69,5.51-7.36,23.64-60.06,24-66,6.16-3.2,10.64-22.31,10-31,5.66.74,61.94,77.15,70.99,69,5.81-4.39,41.04-80.56,45-93.01,15.22-4.61,24.46-.74,40-7,35.27,12.21,13.13-36.13,22-33-.52-34.76,17.17-58.52,19-84,7.7,2.21,9.19-37.93,14-42,12.99-11.39,9.37-42.08,16.99-46.01,1.28-51.12,38.24-99.24,26.01-150.99ZM424.6,458.47c.88,2.63.04,1.91-2,4,.67-1.33,1.33-2.67,2-4Zm-52,99c4.1-21.58,14.7-68.35,47.01-94-3.7,13.78-23.46,54.48-20.01,75-6.41,12.61,2.96,84.77,12.99,104,7.64,8.27,20.94,34.67,25.01,46-34.28-28.02-60-74.52-65-131Zm153-117c-58.34,67.76-48.83,133.15-31,220-22.52-32.8-32.44-68.06-39-109,6.1,4.93.98-31.17,5-36,11.35-21.17,37.05-71.31,65-75Zm50,64c-6.38,10.34-8.6,32.84-9.01,53-2.7-.37-.23.34-2.99-1-3.19,35.72,13.62,78.73,19.01,107-50.84-77.59-56.11-175.97,27-224.99,4.72,6.25-43.89,57.6-34.01,65.99Zm188-164c-2.4-43.56,55.34-49.21,58-2-3.99,22.45-37.95,33.16-58,2Z"/>
  </g>
</svg>